<?xml version="1.0" encoding="UTF-8" standalone="no"?>
        <svg 
    viewBox="2.5634765625 -85.9130859375 448.828125 57.3486328125"
    width="446.2646484375"
    height="143.26171875"
   xmlns="http://www.w3.org/2000/svg"
   xmlns:svg="http://www.w3.org/2000/svg">
   <path d="M67.53-53.39L27.03-53.39L27.03-45.48L67.53-45.48L67.53-53.39ZM27.03-59.99L27.03-57.57L67.53-57.57L67.53-63.72L62.40-63.57L58.37-63.57Q51.86-63.57 50.32-66.03Q48.78-68.48 48.78-74.12L48.78-74.12L48.78-82.98L44.38-82.98Q44.09-78.88 42.59-74.67Q41.09-70.46 37.43-66.65Q33.76-62.84 27.03-59.99L27.03-59.99ZM20.73-119.38L20.73-119.38L43.51-110.67Q43.07-109.50 41.60-108.62Q40.14-107.74 37.65-108.03L37.65-108.03Q36.18-106.05 34.42-104.19Q32.67-102.32 30.76-100.49L30.76-100.49L58.67-100.49L66.58-110.38L64.97-116.09L33.91-116.09L32.52-120.26L61.67-120.26L66.43-128.98L80.57-120.12Q79.32-118.65 75.73-117.70Q72.14-116.75 68.12-116.38L68.12-116.38Q71.92-112.57 78.59-109.61Q85.25-106.64 93.02-105.18L93.02-105.18L93.02-123.27L113.23-113.96L120.12-113.96L130.22-123.93L149.71-106.35Q148.32-104.30 142.97-104.08L142.97-104.08Q140.19-99.17 136.23-92.58Q132.28-85.99 127.77-79.36Q123.27-72.73 118.95-67.68L118.95-67.68Q127.66-62.62 133.19-55.85Q138.72-49.07 141.36-41.78Q143.99-34.50 143.99-27.91L143.99-27.91Q143.99-16.19 138.61-9.19Q133.23-2.20 119.24-2.12L119.24-2.12Q119.24-6.52 118.69-11.61Q118.14-16.70 117.11-18.75L117.11-18.75Q115.58-21.46 111.33-22.78L111.33-22.78L111.33 8.57Q111.33 9.59 107.30 11.94Q103.27 14.28 96.31 14.28L96.31 14.28L93.02 14.28L93.02-23.88Q92.14-22.19 89.43-22.19L89.43-22.19L54.93-22.19Q54.57-20.73 54.20-19.37Q53.83-18.02 53.39-16.63L53.39-16.63Q64.38-16.26 71.19-13.59Q78.00-10.91 81.34-7.10Q84.67-3.30 85.07 0.59Q85.47 4.47 83.61 7.43Q81.74 10.40 78.19 11.39Q74.63 12.38 70.02 10.33L70.02 10.33Q67.46 4.39 62.37-1.83Q57.28-8.06 51.93-12.74L51.93-12.74Q49.00-6.59 43.36-1.61Q37.72 3.37 28.13 7.32Q18.53 11.28 3.74 14.28L3.74 14.28L2.56 12.30Q14.72 7.76 21.57 2.60Q28.42-2.56 31.57-8.72Q34.72-14.87 35.67-22.19L35.67-22.19L6.59-22.19L5.42-26.37L36.18-26.37Q36.47-29.88 36.55-33.54Q36.62-37.21 36.62-41.24L36.62-41.24L27.03-41.24L27.03-36.77Q27.03-35.96 23.33-34.31Q19.63-32.67 13.18-32.67L13.18-32.67L10.18-32.67L10.18-87.01L4.83-84.89L3.15-86.43Q8.86-92.14 13.55-101.22Q18.24-110.30 20.73-119.38ZM67.53-35.82L67.53-41.24L56.69-41.24Q56.62-37.21 56.36-33.51Q56.10-29.81 55.66-26.37L55.66-26.37L65.99-26.37L73.54-36.04L70.53-35.82L67.53-35.82ZM31.20-87.16L31.20-96.31L25.78-96.31Q24.02-94.92 22.08-93.64Q20.14-92.36 18.16-91.19L18.16-91.19L28.49-87.16L31.20-87.16ZM48.78-96.31L44.53-96.31L44.53-87.16L48.78-87.16L48.78-96.31ZM73.54-96.31L61.82-96.31L61.82-87.16L66.87-87.16L74.12-95.43L73.54-96.31ZM78.88-36.77L78.88-36.77Q81.52-34.72 85.58-31.42Q89.65-28.13 93.02-25.20L93.02-25.20L93.02-97.63Q90.75-95.73 88.92-93.31Q87.08-90.89 86.13-88.18L86.13-88.18L90.75-84.59Q89.94-83.57 88.70-82.87Q87.45-82.18 84.89-81.74L84.89-81.74L84.89-39.62Q84.89-38.45 78.88-36.77ZM27.03-82.98L27.03-64.23Q29.74-68.48 30.40-73.24Q31.05-78.00 31.20-82.98L31.20-82.98L27.03-82.98ZM67.53-82.98L61.82-82.98L61.82-77.12Q61.82-75.15 62.99-75.15L62.99-75.15L64.23-75.15Q64.45-75.15 64.75-75.15Q65.04-75.15 65.41-75.15L65.41-75.15L67.53-75.29L67.53-82.98ZM121.66-109.79L121.66-109.79L111.33-109.79L111.33-24.90L119.09-24.90Q121.00-24.90 122.09-25.63L122.09-25.63Q123.56-26.66 124.40-28.60Q125.24-30.54 125.24-33.91L125.24-33.91Q125.24-42.11 122.97-50.94Q120.70-59.77 115.06-67.24L115.06-67.24Q116.24-72.51 117.52-80.05Q118.80-87.60 119.90-95.51Q121.00-103.42 121.66-109.79ZM269.09-12.45L269.09-126.27L295.39-123.93Q295.09-122.24 293.88-121.11Q292.68-119.97 289.97-119.53L289.97-119.53L289.97-10.99Q289.97-3.88 288.21 1.03Q286.45 5.93 280.88 8.86Q275.32 11.79 263.82 12.74L263.82 12.74Q263.53 7.69 262.68 4.06Q261.84 0.44 259.94-1.98L259.94-1.98Q257.96-4.39 255.03-6.15Q252.10-7.91 246.02-9.01L246.02-9.01L246.02-10.99Q246.02-10.99 248.55-10.80Q251.07-10.62 254.66-10.40Q258.25-10.18 261.44-10.03Q264.62-9.89 265.94-9.89L265.94-9.89Q269.09-9.89 269.09-12.45L269.09-12.45ZM236.87-77.86L236.87-116.09L262.06-113.82Q261.84-112.28 260.71-111.11Q259.57-109.94 256.49-109.50L256.49-109.50L256.49-26.07Q256.49-25.27 254.04-23.95Q251.59-22.63 247.89-21.61Q244.19-20.58 240.45-20.58L240.45-20.58L236.87-20.58L236.87-75.44Q235.99-74.41 233.72-74.41L233.72-74.41L206.84-74.41L206.84-64.38Q217.46-61.45 223.35-57.09Q229.25-52.73 231.34-48.08Q233.42-43.43 232.62-39.37Q231.81-35.30 228.99-32.81Q226.17-30.32 222.18-30.36Q218.19-30.40 214.01-34.06L214.01-34.06Q213.79-40.43 211.78-47.09Q209.77-53.76 206.84-59.40L206.84-59.40L206.84 8.28Q206.84 8.94 204.71 10.33Q202.59 11.72 198.74 12.93Q194.90 14.14 189.77 14.14L189.77 14.14L186.04 14.14L186.04-39.18Q173.07-22.41 153.59-10.03L153.59-10.03L152.12-11.57Q159.16-19.70 164.87-30.10Q170.58-40.50 174.83-51.89Q179.08-63.28 181.79-74.41L181.79-74.41L156.88-74.41L155.71-78.59L186.04-78.59L186.04-101.88Q178.27-101.15 170.36-100.71Q162.45-100.27 154.98-100.05L154.98-100.05L154.61-101.51Q162.16-104.00 170.25-107.30Q178.34-110.60 186.18-114.29Q194.02-117.99 200.72-121.62Q207.42-125.24 212.11-128.39L212.11-128.39L235.18-107.23Q233.64-105.98 230.71-105.87Q227.78-105.76 223.68-107.23L223.68-107.23Q220.02-106.49 215.81-105.73Q211.60-104.96 206.84-104.22L206.84-104.22L206.84-78.59L209.99-78.59L220.02-93.46Q220.02-93.46 222.88-90.93Q225.73-88.40 229.65-84.78Q233.57-81.15 236.87-77.86L236.87-77.86ZM311.28-33.03L311.28-33.03Q312.96-33.03 313.77-33.40Q314.58-33.76 315.89-36.04L315.89-36.04Q316.77-37.57 317.58-39.04Q318.38-40.50 319.67-43.40Q320.95-46.29 323.40-51.93Q325.85-57.57 329.99-67.31Q334.13-77.05 340.65-92.43L340.65-92.43L342.92-91.92Q341.46-86.13 339.62-78.52Q337.79-70.90 336.00-63.28Q334.20-55.66 332.85-49.58Q331.49-43.51 330.91-40.80L330.91-40.80Q330.25-37.28 329.77-33.62Q329.30-29.96 329.37-27.17L329.37-27.17Q329.52-22.85 331.27-19.19Q333.03-15.53 334.61-10.91Q336.18-6.30 335.82 0.73L335.82 0.73Q335.60 6.74 331.75 10.33Q327.91 13.92 322.19 13.92L322.19 13.92Q319.63 13.92 316.99 12.16Q314.36 10.40 313.33 6.01L313.33 6.01Q314.87-2.05 315.20-9.30Q315.53-16.55 314.76-21.53Q313.99-26.51 312.30-27.76L312.30-27.76Q309.59-29.88 304.61-30.32L304.61-30.32L304.61-33.03Q304.61-33.03 305.93-33.03Q307.25-33.03 308.83-33.03Q310.40-33.03 311.28-33.03ZM309.45-126.64L310.62-127.37Q321.39-125.68 327.47-122.28Q333.54-118.87 335.85-114.81Q338.16-110.74 337.61-107.04Q337.06-103.34 334.42-100.89Q331.79-98.44 327.91-98.25Q324.02-98.07 319.78-101.22L319.78-101.22Q318.82-108.03 315.71-114.77Q312.60-121.51 309.45-126.64L309.45-126.64ZM302.71-92.07L304.03-92.87Q314.06-90.89 319.59-87.45Q325.12-84.01 327.14-80.05Q329.15-76.10 328.38-72.55Q327.61-68.99 324.98-66.80Q322.34-64.60 318.60-64.60Q314.87-64.60 310.99-67.82L310.99-67.82Q310.69-74.19 308.28-80.79Q305.86-87.38 302.71-92.07L302.71-92.07ZM363.72-29.08L363.72-29.08L365.55-29.08Q369.21-18.09 369.32-10.62Q369.43-3.15 367.20 1.32Q364.97 5.79 361.56 7.58Q358.15 9.38 354.71 9.01Q351.27 8.64 348.93 6.48Q346.58 4.32 346.55 0.77Q346.51-2.78 349.95-7.18L349.95-7.18Q354.93-9.81 358.78-15.20Q362.62-20.58 363.72-29.08ZM373.68-26.88L375.44-27.47Q383.86-21.90 387.27-16.15Q390.67-10.40 390.45-5.57Q390.23-0.73 387.67 2.20Q385.11 5.13 381.52 5.13Q377.93 5.13 374.71 1.03L374.71 1.03Q376.03-5.93 375.59-13.48Q375.15-21.02 373.68-26.88L373.68-26.88ZM377.56-107.52L377.56-108.76L377.56-116.53L394.92-109.50Q395.29-113.89 395.51-119.02Q395.73-124.15 395.87-128.10L395.87-128.10L421.95-124.22Q421.58-122.75 420.30-121.73Q419.02-120.70 416.53-120.63L416.53-120.63Q413.16-117.99 408.62-114.77Q404.08-111.55 399.61-108.76L399.61-108.76L417.11-108.76L425.68-117.77L443.12-104.74Q442.53-104.00 441.39-103.31Q440.26-102.61 438.43-102.32L438.43-102.32L438.43-70.39Q438.43-70.02 437.22-69.40Q436.01-68.77 434.11-68.12L434.11-68.12Q436.45-66.21 440.52-62.66Q444.58-59.11 447.73-56.10L447.73-56.10Q447.07-53.69 443.70-53.69L443.70-53.69L396.31-53.69L396.31-43.21L422.09-43.21L431.84-52.37L448.83-38.53Q446.92-36.47 442.82-35.82L442.82-35.82Q442.09-21.17 440.88-12.16Q439.67-3.15 437.44 1.79Q435.21 6.74 431.54 9.30L431.54 9.30Q425.02 14.14 413.67 14.14L413.67 14.14Q413.67 9.96 413.31 6.70Q412.94 3.44 411.62 1.46L411.62 1.46Q410.38-0.44 408.36-1.79Q406.35-3.15 403.05-4.03L403.05-4.03Q401.22-3.59 399.17-4.10Q397.12-4.61 394.92-6.45L394.92-6.45Q395.07-11.87 392.69-17.58Q390.31-23.29 387.16-27.17L387.16-27.17L388.62-28.05Q397.05-26.37 401.70-23.40Q406.35-20.43 408.03-17.07Q409.72-13.70 409.09-10.66Q408.47-7.62 406.35-5.86L406.35-5.86L414.18-5.57Q416.75-5.57 418.21-6.59L418.21-6.59Q420.19-8.35 421.51-16.63L421.51-16.63Q419.90-15.31 417.55-15.01Q415.21-14.72 412.50-16.19L412.50-16.19Q411.47-20.14 408.29-24.24Q405.10-28.34 401.88-30.62L401.88-30.62L403.05-31.64Q411.40-32.30 416.09-30.73Q420.78-29.15 422.68-26.51L422.68-26.51L423.49-38.96L396.31-38.96L396.31-36.62Q396.31-35.60 394.01-34.13Q391.70-32.67 388.07-31.49Q384.45-30.32 380.42-30.32L380.42-30.32L377.56-30.32L377.56-44.09Q372.29-39.92 364.56-34.42Q356.84-28.93 346.51-22.05L346.51-22.05Q345.34-18.97 342.63-18.02L342.63-18.02L331.64-38.82L348.12-41.82L348.12-100.93L339.62-100.93L338.38-105.18L356.98-105.18L365.84-118.65Q365.84-118.65 367.64-117.00Q369.43-115.36 372.14-112.79Q374.85-110.23 377.56-107.52L377.56-107.52ZM418.51-74.56L418.51-87.45L396.31-87.45L396.31-74.56L418.51-74.56ZM396.31-91.63L418.51-91.63L418.51-104.52L396.31-104.52L396.31-91.63ZM418.51-65.84L418.51-70.39L396.31-70.39L396.31-57.93L423.63-57.93L430.22-67.02Q425.90-65.84 421.95-65.84L421.95-65.84L418.51-65.84ZM366.28-100.93L366.28-45.63L377.56-47.97L377.56-100.93L366.28-100.93Z"/>
    </svg>
        